<?xml version="1.0" encoding="utf-8"?>
<svg xmlns="http://www.w3.org/2000/svg" viewBox="0 0 2000 2000">
  <path d="M285.15,1687.7s-59-87.46,35.38-204.56-75.82-481-53.92-629.28,105.31-78.35,151.64-198.81,96.87-394.26,240.09-296.54,251,12.64,332.76-32.85,171-29,203.86,36.06,129.76,191.52,224.52,153.55,251.45-107,264.93,78.28,1.68,198.81,80.87,267.89,77.5,96-8.42,219,70.75,161.75,19.37,335.29-24.43,271.94-24.43,271.94Z" fill="#fafaeb" fill-rule="evenodd"/>
  <path d="M322,1687.7s-48.86-40.07-99.4-170.65-43.81-209.76-43.81-209.76,33.28-6.74,86.77,23.17,87.61,80,87.61,80-16.42-136.89-10.53-211,21.91-115.41,21.91-115.41,59,48,103.61,145.74,65.71,256.93,65.71,256.93S578.55,1341,624,1279.49s80-85.93,80-85.93S696.49,1369.63,678,1500.2s-62.34,187.5-62.34,187.5Z" fill="#f5ebdd" fill-rule="evenodd"/>
  <path d="M173.92,1308.55A2,2,0,1,1,177,1306c.25.31,87.35,106.14,128.73,196.51s75.78,184.2,75.88,184.47a2,2,0,1,1-3.73,1.37c-.1-.27-34.53-94.17-75.75-184.19S174.17,1308.85,173.92,1308.55Z" fill="#e0bfb3" fill-rule="evenodd"/>
  <path d="M359.28,1084.53a2,2,0,0,1,3.85-1c.18.71,61.47,243.18,85.09,360.44S487,1687.09,487,1687.46a2,2,0,0,1-3.95.48c0-.37-15.17-126.23-38.72-243.16S359.45,1085.23,359.28,1084.53Z" fill="#e0bfb3" fill-rule="evenodd"/>
  <path d="M698.84,1192.88a2,2,0,1,1,3.73,1.37c-.18.49-63.17,172.4-91.8,272.59S567.06,1687.6,567,1688a2,2,0,0,1-3.93-.5c0-.35,15.18-121.34,43.86-221.7S698.65,1193.38,698.84,1192.88Z" fill="#e0bfb3" fill-rule="evenodd"/>
  <path d="M589.81,1192.1s-8.84,49.7,1.05,77.71,31.81,38.33,33.28,38.33,243-5.68,243-5.68,16.22-48.65,39.39-62.34,37.06-19.8,37.06-19.8l-101.42-44.55s-57.69-14.55-101.39-9.57S589.81,1192.1,589.81,1192.1Z" fill="#75e2cc" fill-rule="evenodd"/>
  <path d="M858.17,1302.67l9-.21s16.22-48.65,39.39-62.34,37.06-19.8,37.06-19.8l-101.42-44.55s-39.58-10-78-10.58c-8,8.36-26.83,28.94-21.47,30.62,6.74,2.1,88.45-8.22,111.62-.21C874.35,1202.51,860.44,1280.2,858.17,1302.67Z" fill="#56a5af" fill-rule="evenodd"/>
  <polygon fill="#7c7cac" fill-rule="evenodd" points="932.44 1153.34 888.27 1693.84 868.44 1692.28 912.49 1153.34 932.44 1153.34"/>
  <polygon fill="#297fb9" fill-rule="evenodd" points="688.39 1322.17 725.88 1337.13 888.04 1332.7 899 1290.58 706.08 1299.43 688.39 1322.17"/>
  <path d="M919.74,1218.54l23.89,1.78s35.5,18.44,41.4,30.66,8,47.17,5.05,53.49-195.91,306.71-195.91,306.71,11.42,44,24.69,46.69,25.06-4.63,32,3.37,4.21,26.46,4.21,26.46H739s-49.92-40.78-52-43.52,8-31.38,27.38-53.7c67.11-77.33,99.94-146.23,148.47-236.3,20.43-37.91,24.64-52,24.64-52l-20.33.3s-1-26.6,5-43.48S919.74,1218.54,919.74,1218.54Z" fill="#834735" fill-rule="evenodd"/>
  <path d="M823.13,1566.06c-17.43,27.18-29,45.12-29,45.12s5,19.19,12.2,33c-2.13,2.73-3.36,4.55-3.2,5.06.88,2.87-66-27.33-92.67-54,1.25-1.6,2.55-3.18,3.9-4.72a733.52,733.52,0,0,0,58.39-76.91C786.4,1528.88,806.93,1551.3,823.13,1566.06Z" fill="#30242a" fill-rule="evenodd"/>
  <path d="M798.91,1626.46c4.55,13,11.91,29.75,20,31.41,13.27,2.74,25.06-4.63,32,3.37s4.21,26.46,4.21,26.46H739s-49.92-40.78-52-43.52,8-31.38,27.38-53.7c3.88-4.49,8.93-10.69,14.5-17.74,0,0,2.64,51,33.72,56.91C777.45,1632.47,789.48,1629.51,798.91,1626.46Z" fill="#4d959b" fill-rule="evenodd"/>
  <rect fill="#b8b8d1" height="315.07" width="39.17" x="680.81" y="1330.6"/>
  <rect fill="#30242a" height="35.1" width="39.17" x="680.81" y="1330.6"/>
  <path d="M825.78,857.86s23,11.17,24.64,19,22.75,144.68,24.22,145.53,9.06,1.47,10.75,4.21.21,11.79.21,11.79l43.8,11.37-13.79,60.18s-82.66,13.64-101.19-5.31S825.78,857.86,825.78,857.86Z" fill="#ac6d7e" fill-rule="evenodd"/>
  <path d="M1224.67,1215.67s-1.69,114.57,22.74,248.52,85.09,223.51,85.09,223.51h272.94s67.4-85.35,126.37-236.15,78.34-254.41,78.34-254.41a855.74,855.74,0,0,0-95.4,63.18c-48.86,37.49-107.83,120-107.83,120s25.27-125.94,39.59-213.55,7.59-133.53,7.59-133.53-61.92,37.07-120.89,132.26-96.88,197.13-104,234.19a574.82,574.82,0,0,0-8.85,71.61S1340.29,1265,1224.67,1215.67Z" fill="#f5ebdd" fill-rule="evenodd"/>
  <path d="M1219.53,1216.58a2,2,0,0,1,3.53-1.82c.19.37,65.14,125.21,108.15,243.28s69.07,228.88,69.15,229.2a2,2,0,0,1-3.88.92c-.07-.33-26.1-111-69-228.77S1219.72,1217,1219.53,1216.58Z" fill="#e0bfb3" fill-rule="evenodd"/>
  <path d="M1649,1032.32a2,2,0,0,1,3.45,1.94c-.21.38-73.34,129.23-123.24,286.9s-73.15,366.15-73.22,366.75a2,2,0,0,1-4-.43c.07-.61,23.36-209.52,73.37-367.52S1648.79,1032.7,1649,1032.32Z" fill="#e0bfb3" fill-rule="evenodd"/>
  <path d="M1805.38,1195.73a2,2,0,0,1,2.8,2.82c-.22.22-77.93,76.88-145.18,199.63s-116,289.59-116.09,290.08a2,2,0,0,1-3.81-1.12c.14-.49,48.92-167.7,116.41-290.88S1805.16,1196,1805.38,1195.73Z" fill="#e0bfb3" fill-rule="evenodd"/>
  <path d="M703.33,815.21s-10.43-.11-13,2.32-16.21,17.16-16.21,17.16S605.92,859,600,869.13s4.21,111.2,3,152.47-19,177.55-18.75,179,102.56-12.63,134.15-19.37,123.84-5.48,123.84-5.48-13.06-53.49-13.48-75,1.26-21.91,2.53-45.07,6.73-187,1.68-194.18-47-20.22-47-20.22-11.58-20-14.11-21.9S703.33,815.21,703.33,815.21Z" fill="#d4869c" fill-rule="evenodd"/>
  <path d="M703.33,815.21s-10.43-.11-13,2.32-16.21,17.16-16.21,17.16,10.73,61.61,12.2,62.66S722,871.44,722,871.44l40.86-1.89s31.8,19.8,31.8,12.21S786,841.33,786,841.33s-11.58-20-14.11-21.9S703.33,815.21,703.33,815.21Z" fill="#30242a" fill-rule="evenodd"/>
  <path d="M700.11,1184.67c7.27-1.25,13.56-2.42,18.26-3.42,14.25-3,40.86-4.46,65.76-5.09-3.07-7.06-6.7-14.14-9.32-15.34-5.47-2.53-6.95-38.12-5.47-46.13s-3.15-236.77-3.15-236.77c-1.05,7.58-9.48,32.43-25.06,34.75-7.67,1.14-17.84-18.22-26.29-39.06h0s-16.47,244.65-18.58,274.14A102.37,102.37,0,0,0,700.11,1184.67Z" fill="#30242a" fill-rule="evenodd"/>
  <path d="M766,1047.2s-5.05,23.37,0,34.33,8.85,14.9,8.85,14.9,8.58,3.1,22.53,2.73,19.22-1.73,19.22-1.73S829.1,1114,834,1113.64s7.53-5.37,7.53-5.37,11.1-1.26,10.37-5.15-7.48-19.27-7.48-19.27,14,15.37,19.17,13.37,4.84-7.48,3.58-8.32-28.43-38.23-28.43-38.23,4.21,1.27,4.73,1.27,19.91,18.11,27,18.22,7.16-2,5.9-7-29.38-29.28-35.28-31.28-51.21,14.75-61.6,11.9S766,1047.2,766,1047.2Z" fill="#a15842" fill-rule="evenodd"/>
  <path d="M808.77,1074.65a2,2,0,1,1,1.38-3.72s9.47,3.57,11.17,5.66c1.4,1.73,21.77,30.46,21.83,30.54a2,2,0,1,1-3.25,2.29c-.06-.09-20.32-28.68-21.66-30.33C817.21,1077.82,808.79,1074.65,808.77,1074.65Z" fill="#773427" fill-rule="evenodd"/>
  <path d="M817.58,1060.39a2,2,0,0,1,1-3.84s14.89,3.93,17.31,6.73c2.19,2.53,10.27,19.67,10.3,19.72a2,2,0,0,1-3.59,1.69s-7.9-16.72-9.71-18.82C831.34,1064,817.62,1060.4,817.58,1060.39Z" fill="#773427" fill-rule="evenodd"/>
  <path d="M547.58,1139.87h986.68a6.75,6.75,0,0,1,6.74,6.73h0a6.76,6.76,0,0,1-6.74,6.74H547.58a6.76,6.76,0,0,1-6.74-6.74h0A6.75,6.75,0,0,1,547.58,1139.87Z" fill="#bbbbd3" fill-rule="evenodd"/>
  <rect fill="#30242a" height="11.37" width="411.52" x="727.02" y="1128.49"/>
  <polygon fill="#3ec1f3" fill-rule="evenodd" points="965.95 927.37 1218.99 927.37 1138.54 1128.49 885.5 1128.49 965.95 927.37"/>
  <path d="M1071.57,1008.92c8.08,6.09,8.08,19.73,0,30.46s-21.19,14.49-29.27,8.4-8.08-19.72,0-30.45S1063.49,1002.83,1071.57,1008.92Z" fill="#fff" fill-rule="evenodd"/>
  <path d="M753.45,1271.5s-6.41,21.38-2.41,25.38c1.8,1.81,9.64,2,17.7,1.64.77-5.51,1.25-9,1.25-9S753.78,1277.93,753.45,1271.5Z" fill="#30242a" fill-rule="evenodd"/>
  <path d="M529.59,1178.75s3.37-14.53,13.69-7.58,36.23,50.54,75,69.08,77.29-1.9,90.77,18.53,16.85,78.35,16.85,78.35-126.37,9.68-165.54-16.43C519.93,1293.75,521.87,1222.16,529.59,1178.75Z" fill="#3ec1f3" fill-rule="evenodd"/>
  <rect fill="#2d8db1" height="7.6" width="147.64" x="626.58" y="1680.1"/>
  <path d="M680.81,1645.66h-5.9s-6.21,20.22-18.32,25.81-30,8.63-30,8.63H774.22s-17.9-3-30-8.63-18.33-25.81-18.33-25.81H680.81Z" fill="#3ec1f3" fill-rule="evenodd"/>
  <polygon fill="#7c7cac" fill-rule="evenodd" points="619.75 1153.34 575.58 1693.84 555.76 1692.28 599.8 1153.34 619.75 1153.34"/>
  <polygon fill="#9595bc" fill-rule="evenodd" points="1138.1 1153.34 1182.27 1693.84 1202.09 1692.28 1158.05 1153.34 1138.1 1153.34"/>
  <polygon fill="#9595bc" fill-rule="evenodd" points="1450.78 1153.34 1494.96 1693.84 1514.78 1692.28 1470.73 1153.34 1450.78 1153.34"/>
  <rect fill="#b4d6fb" height="459.12" rx="45.49" width="623.39" x="962.6" y="361.72"/>
  <path d="M232.32,835.11H436.19s2.1-29.59-7.38-36.33-26.95,3.16-30.74-8.84-9.48-65.29-32.65-58.76S321.19,797,307.29,785.09s-35.38-25.8-60.23-3.26S232.32,835.11,232.32,835.11Z" fill="#b4d6fb" fill-rule="evenodd"/>
  <rect fill="#75e2cc" height="104.46" rx="52.23" width="432.16" x="365.61" y="457.92"/>
  <path d="M425.18,527h-9V493.3h28a6.49,6.49,0,0,1,6.45,6.45v8.76a6.26,6.26,0,0,1-1.9,4.6,6.19,6.19,0,0,1-4.55,1.9h-19v12Zm15.06-19.54a1.41,1.41,0,0,0,1-.41,1.38,1.38,0,0,0,.44-1v-3.75a1.49,1.49,0,0,0-1.45-1.45H425.18v6.65ZM501.14,527H490.36L478.9,515h-4.67v12h-9V493.3h28a6.49,6.49,0,0,1,6.45,6.45v8.76a6.49,6.49,0,0,1-6.45,6.5h-3.61l11.5,12ZM489.3,507.46a1.43,1.43,0,0,0,1-.41,1.38,1.38,0,0,0,.44-1v-3.75a1.49,1.49,0,0,0-1.45-1.45H474.23v6.65ZM544.66,527h-23a6.49,6.49,0,0,1-6.45-6.45v-20.8a6.49,6.49,0,0,1,6.45-6.45h23a6.49,6.49,0,0,1,6.45,6.45v20.8a6.49,6.49,0,0,1-6.45,6.45Zm-3.94-7.51a1.43,1.43,0,0,0,1-.43,1.39,1.39,0,0,0,.43-1V502.26a1.39,1.39,0,0,0-.43-1,1.43,1.43,0,0,0-1-.43H525.65a1.43,1.43,0,0,0-1,.43,1.39,1.39,0,0,0-.43,1v15.79a1.39,1.39,0,0,0,.43,1,1.43,1.43,0,0,0,1,.43ZM606.38,527h-9V506.35l-7.51,11h-6.45l-7.56-11V527H567V493.3h9.34l10.4,15.12,10.39-15.12h9.29V527Zm25.14,0h-9V493.3h28a6.49,6.49,0,0,1,6.45,6.45v8.76a6.26,6.26,0,0,1-1.9,4.6,6.19,6.19,0,0,1-4.55,1.9h-19v12Zm15.06-19.54a1.41,1.41,0,0,0,1-.41,1.38,1.38,0,0,0,.44-1v-3.75a1.49,1.49,0,0,0-1.45-1.45H631.52v6.65ZM690,527h-9V500.81H669V493.3h33v7.51H690V527Zm50.69,0H715.24v-7.51h21.52a1.39,1.39,0,0,0,1-.43,1.41,1.41,0,0,0,.41-1v-2.7a1.39,1.39,0,0,0-.41-1,1.35,1.35,0,0,0-1-.43H721.35a6.45,6.45,0,0,1-6.45-6.45v-7.71a6.49,6.49,0,0,1,6.45-6.45h25.08v7.51H725.3a1.43,1.43,0,0,0-1,.43,1.39,1.39,0,0,0-.43,1V505a1.37,1.37,0,0,0,.43,1,1.4,1.4,0,0,0,1,.44h15.4a6.39,6.39,0,0,1,6.45,6.45v7.7A6.44,6.44,0,0,1,740.7,527Z" fill="#fff" fill-rule="evenodd"/>
  <path d="M1441.83,900.8a74.41,74.41,0,0,1,19.2,8.13l14.25-14.26,28.3,28.29-15,15a74.26,74.26,0,0,1,6.92,18.5h21.89v40h-23.7a74.46,74.46,0,0,1-7.49,16.12l17.34,17.34-28.3,28.29-18.44-18.44a75,75,0,0,1-15,5.79V1072h-40v-26.92a74.69,74.69,0,0,1-14.5-5.89l-19,19-28.3-28.29,18.26-18.26a74.45,74.45,0,0,1-6.94-15.2H1326.2v-40h23.37a74.47,74.47,0,0,1,6.41-17.54L1340.06,923l28.3-28.29,14.81,14.81a74.71,74.71,0,0,1,18.64-8.27v-20.4h40v20Zm-19.27,30.56a41.81,41.81,0,1,0,41.8,41.8A41.81,41.81,0,0,0,1422.56,931.36Z" fill="#f5ebdd" fill-rule="evenodd"/>
  <path d="M753.45,1271.5s8.85-50.55,48.44-63.18,67.4-3.37,67.4-3.37a62.57,62.57,0,0,1,7.79,44.44c-5.05,25.69-43.8,258.62-47,295.47s-1.47,56.45,4.84,78.56,10.54,35.07,25.49,33.59,46-5.26,49.28,5.38,0,25.31,0,25.31H745.14s5.48-58.27,10.11-80.39a290.15,290.15,0,0,1,12-41.91c1.68-4.63,3-102.14-1.69-130.57s-9.9-55-6.32-74.13S770,1289.51,770,1289.51,753.78,1277.93,753.45,1271.5Z" fill="#a15842" fill-rule="evenodd"/>
  <path d="M828.94,1562.05c-1.28,26.31.77,43,6,61.37,1.75,6.1,3.33,11.5,5,16.09-20.45,8.61-73.62,29-91.62,17.18,2-17.53,4.53-38.13,6.89-49.38a290.15,290.15,0,0,1,12-41.91,8.86,8.86,0,0,0,.26-1.53Z" fill="#30242a" fill-rule="evenodd"/>
  <path d="M835.28,1624.54c6.15,21.43,10.47,33.92,25.17,32.47,14.95-1.47,46-5.26,49.28,5.38s0,25.31,0,25.31H745.14s2.81-29.84,6.1-54.92c7.23,4.89,23.55,14.89,31,11.18C791.31,1639.41,806.91,1618.52,835.28,1624.54Z" fill="#75e2cc" fill-rule="evenodd"/>
  <path d="M911,1677.94a71.86,71.86,0,0,1-1.31,9.76H745.14s.34-3.55.91-9.23Z" fill="#56a5af" fill-rule="evenodd"/>
  <path d="M713.41,751.76a35.19,35.19,0,0,0,3.79-10.42c1.06-5.79,2.11-16.64,2.11-16.64s6.53,2.95,9.27-8.84,2.95-24.22,7.37-20.64,10.85,16.53,15.06,8.84,3-16.32,9.37-12.32,12.74,16.32,19.16,15.16,5.27-15.58,7.59-15.79,15.06,2.32,18.22,5.69,2.94,5.37,2.94,5.37,23,2.1,25.91-6.74-11.58-19.06-11.58-22.33,15.06-7.79,18.22-13.27,0-14.32-11.69-15-24.75-3.58-16.43-10.63,12.22-21.17,3.69-25-27.17,2.63-30.12,2.42,5.42-25.85-8.9-25.85-25.59,18.37-28.85,18.85-6.48,2.58-9.74-3.43S730.06,585.7,721.53,589s-11.16,11-12.32,18.54-5.9,15.9-11,13.79-16.22-18-31.38-11.79-11.38,17.9-6.11,23.38,8.53,9,2.42,10.21-20,2.11-23.27,14.53,10.85,14.54,11.69,21.28-5,9-10.74,13.48-11.48,13.79-8,21.16,26.22,3.16,25.28,7.37-11.48,20.33-7.06,27.7,16.43-4,16.43-4,5.16,11.37,10.21,13.27a17.22,17.22,0,0,0,10.22.21s-9.9-32.33-.74-39.81,21.06,7.58,22.12,15,1.37,13.59,1.37,13.59S710.9,751.45,713.41,751.76Z" fill="#30242a" fill-rule="evenodd"/>
  <path d="M701.55,707.36a2,2,0,0,1-3.63,1.63s-4.65-10.12,1.18-19.45,11.07-9,11.09-9a2,2,0,1,1-.27,4s-2.82-.23-7.44,7.18S701.54,707.33,701.55,707.36Z" fill="#a15842" fill-rule="evenodd"/>
  <path d="M678.46,682.77a2,2,0,1,1-2.31,3.21s-10.36-7.43-5.65-16.23c2.79-5.2,8.42-6.63,12.35-7-2.4-3.44-5.43-8.87-4.05-12.78,2.36-6.65,10.5-5.2,10.52-5.2a2,2,0,0,1-.65,3.92s-4.9-.86-6.12,2.6c-1.4,3.95,5.81,12.12,5.83,12.14h0a2,2,0,0,1,.48,1.56,2,2,0,0,1-2.22,1.72s-9.39-1.2-12.64,4.86C670.93,677.35,678.44,682.75,678.46,682.77Z" fill="#a15842" fill-rule="evenodd"/>
  <path d="M707.74,653.32a2,2,0,1,1-3.59-1.71s6.55-14.24,14.55-9.83c7.08,3.9,7.34,9.61,7.34,9.63a2,2,0,0,1-4,.23s-.16-3.55-5.29-6.38C712.57,642.93,707.76,653.3,707.74,653.32Z" fill="#a15842" fill-rule="evenodd"/>
  <path d="M737.19,632.2a2,2,0,1,1-.77-3.9s15.23-3.25,19.35,3.44c2.83,4.59-.63,15-2.81,20.52,5.14-.85,14.12-1.42,18.62,3.75,6.58,7.55,1.44,17.35,1.42,17.38a2,2,0,0,1-3.53-1.82s3.9-7.45-.89-13-18.35-1.72-18.39-1.71h0a2,2,0,0,1-1.36-.11,2,2,0,0,1-1-2.63s7.34-15.79,4.53-20.35C749.76,629.56,737.23,632.19,737.19,632.2Z" fill="#a15842" fill-rule="evenodd"/>
  <path d="M774.26,634.59a2,2,0,0,1-1-3.84s14.37-3.89,19.53,6.07c5.44,10.49-5.34,14.64-5.37,14.66a2,2,0,0,1-1.43-3.7s6.68-2.58,3.27-9.14C785.59,631.54,774.29,634.58,774.26,634.59Z" fill="#a15842" fill-rule="evenodd"/>
  <path d="M791.74,664.86a2,2,0,1,1,.5-3.93s12.5,1.45,12.36,9.15c-.13,7.48-9.54,9.49-9.57,9.5a2,2,0,0,1-.82-3.89s6.35-1.36,6.43-5.67C800.71,665.93,791.76,664.86,791.74,664.86Z" fill="#a15842" fill-rule="evenodd"/>
  <path d="M731.46,672.56a2,2,0,0,1,3.95-.38s.71,7.19,4.8,8.39c3.15.93,4.32-6.72,4.33-6.74a2,2,0,1,1,3.91.66s-1.77,12.13-9.36,9.89C732.44,682.43,731.47,672.58,731.46,672.56Z" fill="#a15842" fill-rule="evenodd"/>
  <path d="M670.81,699.15a2,2,0,1,1,.58,3.93s-7.29,1-5.31,8.71,9.51,5.14,9.54,5.14a2,2,0,0,1,1.29,3.76s-11.62,4.08-14.69-7.92S670.78,699.15,670.81,699.15Z" fill="#a15842" fill-rule="evenodd"/>
  <path d="M808.29,702.17s-13.35,76.66-21.46,91.51-24.33,15.79-24.33,15.79,4.74,60.87,3.69,68.45-9.48,32.43-25.06,34.75-41.49-80-42.33-87.4,3.79-52.44,3.79-52.44-8.24-2.32-14.65-14.74c0,0-9.9-32.33-.74-39.81s21.06,7.58,22.12,15,1.37,13.59,1.37,13.59.21,4.63,2.72,4.94a35.19,35.19,0,0,0,3.79-10.42c1.06-5.79,2.11-16.64,2.11-16.64s6.53,2.95,9.27-8.84,2.95-24.22,7.37-20.64,10.85,16.53,15.06,8.84,3-16.32,9.37-12.32,12.74,16.32,19.16,15.16,5.27-15.58,7.59-15.79,15.06,2.32,18.22,5.69S808.29,702.17,808.29,702.17Z" fill="#a15842" fill-rule="evenodd"/>
  <path d="M798.56,752q-.59,2.68-1.18,5.34a34.83,34.83,0,0,1-4.63.29c-6,0-10.8-1.37-10.8-3.05s4.84-3.06,10.8-3.06a33.59,33.59,0,0,1,5.81.48Zm-50.67.89c6,0,10.79,1.37,10.79,3.06S753.85,759,747.89,759s-10.8-1.37-10.8-3.05S741.93,752.87,747.89,752.87Z" fill="#8f4030" fill-rule="evenodd"/>
  <path d="M762.5,809.47s.36,4.53.85,11.26c-22.45-3.64-42.24-28.63-41.28-29.68s16.79,10.21,24.58,14.42A35.17,35.17,0,0,0,762.5,809.47Z" fill="#30242a" fill-rule="evenodd"/>
  <path d="M747.71,744.2a2,2,0,0,1-3.81-1.12s3.43-11.67,10.63-11.53c7.62.14,7.74,9.15,7.74,9.18a2,2,0,0,1-4,.14s-.1-5.29-3.84-5.36C750.29,735.43,747.72,744.17,747.71,744.2Z" fill="#30242a" fill-rule="evenodd"/>
  <path d="M783,741.29a2,2,0,1,1-3.79-1.16s4-13.24,11-9.6c6.06,3.16,5.11,11.08,5.11,11.11a2,2,0,0,1-3.95-.49s.63-5.22-3-7.11C785.62,732.63,783,741.27,783,741.29Z" fill="#30242a" fill-rule="evenodd"/>
  <path d="M771.15,736.67a2,2,0,0,1,3.87-.87c0,.09,7.49,32.72,1.44,33.06-4.42.25-11.6-5.22-11.62-5.24a2,2,0,1,1,2.38-3.17s6.07,4.62,9,4.45C777.56,764.82,771.17,736.75,771.15,736.67Z" fill="#773427" fill-rule="evenodd"/>
  <path d="M771.09,774.78s-26.12-13.27-28.33-10-2.11,25.28,12.11,27.07S771.09,774.78,771.09,774.78Z" fill="#fff" fill-rule="evenodd"/>
  <path d="M748.45,730.31a6,6,0,1,1-9.7-6.9s3.61-5.33,12.65-8.67,13-2.27,13-2.27a6,6,0,0,1-2.57,11.62s-.68-.24-6.3,1.84S748.46,730.31,748.45,730.31Z" fill="#30242a" fill-rule="evenodd"/>
  <path d="M789.28,723.48a5.94,5.94,0,1,1,4.15-11.14,53.46,53.46,0,0,1,8.39,4,18,18,0,0,1,6.29,7,5.94,5.94,0,0,1-10.87,4.8,4.8,4.8,0,0,0-1.81-1.81A41.55,41.55,0,0,0,789.28,723.48Z" fill="#30242a" fill-rule="evenodd"/>
  <path d="M692.15,733.77a2,2,0,0,1-4-.34s1.06-11.73,7.66-10c1.25.33,2.41,1.57,3.45,3.4,1.85,3.28,3.73,9,4.94,14.65s1.82,11.37,1,14.32a4.25,4.25,0,0,1-1.9,2.76c-5.93,3.34-10.41-5.52-10.42-5.55a2,2,0,1,1,3.53-1.83s2.66,5.22,4.95,3.93c.06,0-.06-.09,0-.34.62-2.31.06-7.28-1.06-12.45s-2.87-10.63-4.51-13.55a5.29,5.29,0,0,0-1-1.5C692.77,726.76,692.15,733.75,692.15,733.77Z" fill="#773427" fill-rule="evenodd"/>
  <path d="M607.91,868.81s21.06,25.27,26.12,64S619,1052.14,619,1052.14s143.16-8.53,149.26-9,12.69-.79,12.69-.79-5.26,25.69-4.42,38.12,1.69,21.06,1.69,21.06c-59,9.69-144.77,33-192.71,37.91-8.5.87-17.25-1.88-24.84-5.65a28.48,28.48,0,0,0-3.5-1.85c-1-.57-2-1.16-3-1.76-12.09-8.79-10.7-31.52-8.48-45.51l2.38-11.61h0l36.49-178.45C588.69,874.27,596.54,858.18,607.91,868.81Z" fill="#ac6d7e" fill-rule="evenodd"/>
  <path d="M743.41,1044.11a2,2,0,0,1,2.38-1.48,2,2,0,0,1,1.49,2.39s-4.59,19.46-4.59,33.56a161.3,161.3,0,0,0,2.5,27.06,2,2,0,0,1-3.9.73,164.59,164.59,0,0,1-2.58-27.79C738.71,1064,743.39,1044.17,743.41,1044.11Z" fill="#d4869c" fill-rule="evenodd"/>
  <path d="M1292.72,585.76s-8,112.67-7,116.67,97.51-7.79,97.51-7.79-6.53-123.2-7-130.57S1301.7,564.11,1292.72,585.76Z" fill="#455495" fill-rule="evenodd"/>
  <path d="M1287.78,670.71a2,2,0,0,1-1.17-3.8c.08,0,25.93-7.91,53-13.18,27.4-5.35,42-1.56,42-1.55a2,2,0,1,1-1,3.86s-13.8-3.59-40.32,1.59C1313.44,662.88,1287.85,670.69,1287.78,670.71Z" fill="#6a7fc0" fill-rule="evenodd"/>
  <path d="M1290.55,629.4a2,2,0,1,1-1.42-3.72c.08,0,25.59-9.75,53.15-12.52s37.11-.73,37.13-.72a2,2,0,1,1-.79,3.89s-9-1.93-35.95.78S1290.62,629.37,1290.55,629.4Z" fill="#6a7fc0" fill-rule="evenodd"/>
  <path d="M1497,820.84H1163.71c42.62-105.27,193.47-191.92,290-106.3C1488.64,745.56,1495.58,798.83,1497,820.84Z" fill="#6a7fc0" fill-rule="evenodd"/>
  <path d="M1446.72,820.84H1229.43c-1.25-19.52-.16-63.83,31.33-90.5,41.28-35,120-39,153.32-10.53C1446.53,747.53,1459.75,776.46,1446.72,820.84Z" fill="#92a2d1" fill-rule="evenodd"/>
  <path d="M1234.66,770.31a2,2,0,0,1,1.9-3.49c.09,0,30.84,17.35,99.42,18.4s112.34-17.28,112.46-17.33a2,2,0,1,1,1.51,3.67c-.13.05-44.53,18.68-114,17.62S1234.75,770.36,1234.66,770.31Z" fill="#6a7fc0" fill-rule="evenodd"/>
  <path d="M1185,683.1s60.23,2.95,63.39-1.05,77.92-127.84,81.29-129.94,93.51-36,96.67-40.86,38.75-108,32.86-150.58-41.7-64.87-99-65.71-91,2.1-138,21.48-64.44,48.44-70.55,72.45C1127.88,482.6,1142.24,596.82,1185,683.1Z" fill="#6a7fc0" fill-rule="evenodd"/>
  <path d="M1185,683.1s60.23,2.95,63.39-1.05,77.92-127.84,81.29-129.94c1-.59,8.71-3.68,19.45-7.93a300.2,300.2,0,0,0-2.5-55.72S1345,380.21,1367.27,352c13.9-17.57,48-27.14,71.82-31.86a80.1,80.1,0,0,0-26.53-16.27c-22.8,3.21-60.81,11.26-84.88,30.86-36.23,29.48-48,74.55-51.39,96-2.61,16.65-79.07,134-116.5,187.88A411,411,0,0,0,1185,683.1Z" fill="#3ec1f3" fill-rule="evenodd"/>
  <path d="M1153,384.26c-.49,1.56-.92,3.1-1.31,4.63-21.52,84.58-11.91,185.87,21.61,268.25,13.07.91,40.46,2.25,54.42-1.2,18.74-4.64,19.17-22.33,19.17-22.33s35.59-164.69,38.54-206.39-45.07-43-45.07-43Z" fill="#30242a" fill-rule="evenodd"/>
  <path d="M1154.5,386.24l-.24.87c-.21.73-.41,1.48-.61,2.26h0c-10.56,41.52-13.58,87.11-9.93,132.49,3.72,46.17,14.35,92.13,31,133.37,7.9.53,20.11,1.14,31.52.89,8-.17,15.6-.77,21.06-2.12a22.38,22.38,0,0,0,17.65-20.45,2.23,2.23,0,0,1,0-.36h0c.1-.47,35.57-164.56,38.5-206.12,2.81-39.63-43-40.84-43.14-40.84Zm-4.07-.21c.21-.74.45-1.53.7-2.36h0a2,2,0,0,1,1.9-1.41h87.42c.14,0,50.08,1.32,47,45.09-2.92,41.22-37.43,201.33-38.55,206.53-.13,2.16-1.71,19.29-20.67,24-5.74,1.42-13.65,2-21.92,2.23-12.22.27-25.19-.43-33-1a2,2,0,0,1-1.77-1.24c-17.06-41.92-28-88.71-31.73-135.71-3.69-45.8-.64-91.83,10-133.78h0q.29-1.14.63-2.37Zm89.89-3.76h0Z" fill-rule="evenodd"/>
  <path d="M1141.19,456.71c-.28,4.26-.5,8.55-.66,12.84h77a6.44,6.44,0,0,0,6.43-6.42h0a6.44,6.44,0,0,0-6.43-6.42Z" fill="#3ec1f3" fill-rule="evenodd"/>
  <ellipse cx="1346.23" cy="534.05" fill="#fff" rx="64.65" ry="43.39" transform="rotate(-71.32 1346.156 534.07)"/>
  <path d="M1322.16,555l22.46-2.08,22.47-2.07a5.6,5.6,0,0,1,4.29,1.37,5.4,5.4,0,0,1,1.79,4.07h0a6.56,6.56,0,0,1-1.79,4.41,6.76,6.76,0,0,1-4.29,2.16L1344.62,565,1322.16,567a5.6,5.6,0,0,1-4.29-1.37,5.42,5.42,0,0,1-1.78-4.07h0a6.55,6.55,0,0,1,1.78-4.4,6.71,6.71,0,0,1,4.29-2.16Zm4.32-45.39,22.46-2.07,22.47-2.08a5.64,5.64,0,0,1,4.29,1.37,5.46,5.46,0,0,1,1.78,4.08h0a6.55,6.55,0,0,1-1.78,4.4,6.71,6.71,0,0,1-4.29,2.16l-22.47,2.07-22.46,2.07a5.58,5.58,0,0,1-4.29-1.36,5.43,5.43,0,0,1-1.78-4.08h0a6.52,6.52,0,0,1,1.78-4.4,6.71,6.71,0,0,1,4.29-2.16Zm-2.64,22,22.47-2.08,22.47-2.07a5.61,5.61,0,0,1,4.28,1.37,5.43,5.43,0,0,1,1.79,4.08h0a6.53,6.53,0,0,1-1.79,4.4,6.69,6.69,0,0,1-4.28,2.16l-22.47,2.07-22.47,2.07a5.56,5.56,0,0,1-4.28-1.36,5.43,5.43,0,0,1-1.78-4.08h0a6.52,6.52,0,0,1,1.78-4.4A6.66,6.66,0,0,1,1323.84,531.65Z" fill="#6a7fc0" fill-rule="evenodd"/>
  <path d="M171.65,1687.7h1656.7a8.77,8.77,0,0,1,8.74,8.73h0a8.77,8.77,0,0,1-8.74,8.74H171.65a8.77,8.77,0,0,1-8.74-8.74h0A8.77,8.77,0,0,1,171.65,1687.7Z" fill="#30242a" fill-rule="evenodd"/>
</svg>