<?xml version="1.0" encoding="utf-8"?>
<svg xmlns="http://www.w3.org/2000/svg" viewBox="0 0 2000 2000">
  <path d="M182.86,1647.71s-92.56-182-17.7-309.25,82.3-382.28,94.69-546.88,130.08-193.8,188.49-152.21,115-9.73,162.82-110.61S770.45,341.15,820,429.65s86.72,142.47,260.17,9.73,274.32-137.16,281.4-30.09,54,120.36,154.87,47.79,115.53-12.78,103.78,96.7,62.58,173.2,125.41,155.5,116.82,22.13,71.68,130.09-33.62,215,34.52,324.76,45.14,219.46-5.3,310.61-39.83,173-39.83,173Z" fill="#fafaeb" fill-rule="evenodd"/>
  <path d="M908.91,1247.22s-6.86,57.08-19.25,80.09-22.35,47.89-8.19,45.46,75.34-82.08,74.89-89.82-16.59-53.1-16.59-53.1Z" fill="#eaa58b" fill-rule="evenodd"/>
  <path d="M892.72,1320.7a68.65,68.65,0,0,1-3.06,6.61c-12.39,23-22.35,47.89-8.19,45.46s75.34-82.08,74.89-89.82c-.29-5.18-7.61-27.15-12.42-41.16-4,18.41-13.8,60.23-24.74,72.8C910.85,1324.17,899.87,1323,892.72,1320.7Z" fill="#56679c" fill-rule="evenodd"/>
  <path d="M943.09,1232.4s.44,59.73,1.66,84.95,7,63.39,25.55,56.75,24.12-52.88,26.77-81.86-7.49-62.38-5.53-62.39S943.09,1232.4,943.09,1232.4Z" fill="#eaa58b" fill-rule="evenodd"/>
  <path d="M943.71,1280.78c.26,13.73.6,27.42,1,36.57,1.22,25.22,7,63.39,25.55,56.75s24.12-52.88,26.77-81.86c1-11.06.16-22.76-1.17-33-1.89,19.29-7.45,52.16-23.38,55.13S947.62,1294.55,943.71,1280.78Z" fill="#56679c" fill-rule="evenodd"/>
  <path d="M1091.19,945.74a316.06,316.06,0,0,1,96.41,40l58.4-58.41,101.54,101.53-58.41,58.41a316,316,0,0,1,40,96.4h82.55v143.59h-82.55a316.06,316.06,0,0,1-40,96.41l58.41,58.4L1246,1583.58l-58.4-58.4a316.31,316.31,0,0,1-96.41,40v82.55H947.61v-82.55a316.06,316.06,0,0,1-96.41-40l-58.4,58.4L691.26,1482.05l58.41-58.41a315.9,315.9,0,0,1-40-96.4H627.14V1183.65h82.55a316.1,316.1,0,0,1,40-96.4l-58.41-58.4L792.8,927.31l58.4,58.41a315.7,315.7,0,0,1,96.41-40V863.19h143.58v82.55Zm-71.79,121.08c-104.17,0-188.62,84.45-188.62,188.63s84.45,188.62,188.62,188.62S1208,1359.62,1208,1255.45,1123.58,1066.82,1019.4,1066.82Z" fill="#75e2cc" fill-rule="evenodd"/>
  <path d="M880.92,853.21s-54,3.1-52.88,26.55,29.87,225.43,45.57,282.29,30.31,97.56,30.31,97.56,9,.22,19.36-7a98.51,98.51,0,0,0,17.26-15.26s15.81,9.4,30.42,10.18,22.56-12.84,22.56-12.84l-1-292.35s90-1.61,119.29,8.87,46.19-28.34,45.75-59.31-15.53-53-15.53-53S920.41,834.4,880.92,853.21Z" fill="#30242a" fill-rule="evenodd"/>
  <path d="M891.54,713.4s41.36-94,51.32-117,26.33-34.73,32.08-14.6-8,129.87-8,129.87Z" fill="#56679c" fill-rule="evenodd"/>
  <path d="M114.9,1647.71H1855.19a9.2,9.2,0,0,1,9.17,9.17h0a9.2,9.2,0,0,1-9.17,9.18H114.9a9.21,9.21,0,0,1-9.18-9.18h0A9.2,9.2,0,0,1,114.9,1647.71Z" fill="#30242a" fill-rule="evenodd" stroke="#000" stroke-linecap="round" stroke-linejoin="round" stroke-width="1.42"/>
  <path d="M1330.91,538.28h361.27a47.49,47.49,0,0,1,47.35,47.35h0A47.48,47.48,0,0,1,1692.18,633H1330.91a47.48,47.48,0,0,1-47.34-47.34h0A47.48,47.48,0,0,1,1330.91,538.28Z" fill="#75e2cc" fill-rule="evenodd"/>
  <path d="M1386.61,576.83a11,11,0,0,1-2.54,6.82,9.42,9.42,0,0,1-4,2.76,16.76,16.76,0,0,1-6.3,1.07h-5.28v13.59H1360V566.13h13.79q6.07,0,9.46,3.14a10,10,0,0,1,3.38,7.56ZM1368.49,581h5.28a3.89,3.89,0,0,0,4.18-4.15,4.27,4.27,0,0,0-1.14-3.07,4.05,4.05,0,0,0-3-1.19h-5.28V581Zm37.9,6.47v13.59h-8.51V566.13h13.79q6.07,0,9.46,3.14a10,10,0,0,1,3.38,7.56,10.83,10.83,0,0,1-1.84,5.92,10.08,10.08,0,0,1-6,4.09l8.56,14.23h-10l-7.86-13.59Zm0-14.88V581h5.28a3.89,3.89,0,0,0,4.18-4.15,4.27,4.27,0,0,0-1.14-3.07,4.05,4.05,0,0,0-3-1.19Zm53.46,18.22a11.93,11.93,0,0,0,0-14.64,9.64,9.64,0,0,0-13.44,0,11.89,11.89,0,0,0,0,14.64,9.61,9.61,0,0,0,13.44,0Zm-19.42,5.53a18.44,18.44,0,0,1,0-25.67,17.64,17.64,0,0,1,12.75-5,17.44,17.44,0,0,1,12.69,5,18.54,18.54,0,0,1,0,25.67,18.47,18.47,0,0,1-25.42,0Zm81.78-30.22v34.94h-8.51V581.36l-8.11,19.71h-6.33l-8.11-19.71v19.71h-8.51V566.13h9.76l10,24.09,10-24.09Zm40.24,10.7a11,11,0,0,1-2.54,6.82,9.42,9.42,0,0,1-4,2.76,16.76,16.76,0,0,1-6.3,1.07h-5.28v13.59h-8.51V566.13h13.79q6.08,0,9.46,3.14a10,10,0,0,1,3.38,7.56ZM1544.33,581h5.28a3.89,3.89,0,0,0,4.18-4.15,4.27,4.27,0,0,0-1.14-3.07,4.05,4.05,0,0,0-3-1.19h-5.28V581Zm27-8.41v-6.47h27.58v6.47h-9.56v28.47h-8.51V572.6Zm35.56,37.78,13.34-56.6h8.22l-13.35,56.6Zm28.69,0,13.34-56.6h8.21l-13.34,56.6Z" fill="#4586a2" fill-rule="evenodd"/>
  <path d="M155.06,995.78s-20.36,181.41-5.32,295.57,62.83,265,83.63,303.53,32.3,52.83,32.3,52.83H489.11s41.15-223.62,62.39-420.08-.22-298.22-.22-298.22-90,111.72-117,227.21-51.33,334.06-51.33,334.06-5.3-254-18.58-377.87S312.13,900,312.13,900s-20.35,155.3-27.43,250.87,13.72,285.39,13.72,285.39S214.35,1066.35,155.06,995.78Z" fill="#f5ebdd" fill-rule="evenodd"/>
  <path d="M1469.18,959.28s-77,193.79-44.25,376.09,58.4,312.34,58.4,312.34H1730.9s107.08-283.36,126.55-451.5,8.85-237.16,8.85-237.16-95.57,135.84-130.08,224.33-53.1,185.39-53.1,185.39,21.68-330.52,24.34-448.21-10.62-185.83-10.62-185.83-85.84,115.92-110.61,277-11.51,364.59-11.51,364.59S1527.82,1072.77,1469.18,959.28Z" fill="#f5ebdd" fill-rule="evenodd"/>
  <path d="M153,996a2.08,2.08,0,0,1,4.15-.38c.06.66,20.58,228.13,57.71,369.56s93.56,281.37,93.72,281.78a2.08,2.08,0,1,1-3.87,1.55c-.16-.4-56.68-140.55-93.88-282.28S153,996.63,153,996Z" fill="#e0bfb3" fill-rule="evenodd"/>
  <path d="M310.05,900.12a2.08,2.08,0,0,1,4.16-.26c.06.95,21.94,329.5,15.74,453.52-6.19,123.67,22,293.5,22.1,294a2.09,2.09,0,0,1-4.12.67c-.08-.49-28.35-170.74-22.15-294.85C332,1229.43,310.11,901.07,310.05,900.12Z" fill="#e0bfb3" fill-rule="evenodd"/>
  <path d="M554.14,963.77a2.08,2.08,0,0,1,4.08.85c-.17.79-57.62,272.76-85.84,409.44-28.28,137-36.22,273.37-36.24,273.77a2.08,2.08,0,1,1-4.16-.25c0-.39,8-137,36.32-274.36C496.72,1235.58,554,964.56,554.14,963.77Z" fill="#e0bfb3" fill-rule="evenodd"/>
  <path d="M1467.11,959a2.09,2.09,0,1,1,4.13.62c0,.29-15.65,100.05-6.81,303.35s61.71,383.66,61.86,384.19a2.08,2.08,0,0,1-4,1.16c-.16-.53-53.17-181.39-62-385.18S1467.07,959.26,1467.11,959Z" fill="#e0bfb3" fill-rule="evenodd"/>
  <path d="M1676.79,761.72a2.09,2.09,0,1,1,4.1.8c-.12.62-43,214.08-62.49,477.64s-17.7,407.11-17.7,407.53a2.08,2.08,0,1,1-4.16,0c0-.42-1.77-144.12,17.7-407.85S1676.67,762.34,1676.79,761.72Z" fill="#e0bfb3" fill-rule="evenodd"/>
  <path d="M1864.3,958.47a2.08,2.08,0,1,1,4,1.17c-.2.69-69.52,236.93-117.23,410.12-47.89,173.82-79.56,278.25-79.65,278.55a2.09,2.09,0,1,1-4-1.21c.1-.3,32-105.36,79.64-278.43C1794.9,1195,1864.1,959.15,1864.3,958.47Z" fill="#e0bfb3" fill-rule="evenodd"/>
  <path d="M511.59,737a2.08,2.08,0,0,1-4.16,0c.18-24.56,12.89-41.66,28.6-49.27a43.88,43.88,0,0,1,18.42-4.45,38.27,38.27,0,0,1,18.09,4.17c13.64,7,23.92,23.07,23.67,49.58a2.08,2.08,0,0,1-4.16,0c.23-24.67-9.07-39.47-21.42-45.83a34.05,34.05,0,0,0-16.13-3.71,39.48,39.48,0,0,0-16.65,4C523.42,698.4,511.76,714.19,511.59,737Z" fill="#3ec1f3" fill-rule="evenodd"/>
  <path d="M573.74,723.15a2.09,2.09,0,0,1,3-3c.23.23,12.19,9.85,16.88,13.63l12.49-20.75a2.09,2.09,0,0,1,3.58,2.16L595.92,738h0l-.16.23a2.09,2.09,0,0,1-2.94.31C592.77,738.52,575,724.42,573.74,723.15Z" fill="#3ec1f3" fill-rule="evenodd"/>
  <path d="M595.42,756.62a2.09,2.09,0,0,1,4.17,0c-.18,24.56-12.89,41.66-28.61,49.27a43.84,43.84,0,0,1-18.41,4.45,38.19,38.19,0,0,1-18.1-4.17c-13.64-7-23.91-23.07-23.67-49.57a2.09,2.09,0,0,1,4.17,0c-.23,24.67,9.07,39.47,21.41,45.83a34,34,0,0,0,16.14,3.71,39.47,39.47,0,0,0,16.65-4C583.59,795.17,595.26,779.38,595.42,756.62Z" fill="#3ec1f3" fill-rule="evenodd"/>
  <path d="M533.28,770.42a2.09,2.09,0,0,1-3,3c-.23-.23-12.19-9.85-16.88-13.62L501,780.5a2.09,2.09,0,1,1-3.57-2.16l13.72-22.78h0a1.88,1.88,0,0,1,.16-.23,2.08,2.08,0,0,1,2.93-.32S532,769.15,533.28,770.42Z" fill="#3ec1f3" fill-rule="evenodd"/>
  <path d="M1053.9,541.85l34.07,3.76,9.58,10.08s42.41,4.3,43.51,8.5-9.29,148.66-10.17,180.52,12.39,100.88,12.39,100.88H938.42s21.68-99.11,15.93-119.46-15.93-56.64-5.31-81,8-67.7,15.92-73.89S1053.9,541.85,1053.9,541.85Z" fill="#6a7fc0" fill-rule="evenodd"/>
  <path d="M1059.22,845.59H987.17c-.3-42.82-1.18-125.08-3.62-138.71-3.32-18.59-3.32-52-3.32-52l54.42-47.57,10.19,6.5s-21.25,76.91-5.54,107C1052.3,745.72,1063.33,805.61,1059.22,845.59Z" fill="#fff" fill-rule="evenodd"/>
  <path d="M1119,564s-22.9,5.42-28.43,33,15.15,100.11,20.35,120,11.06,43.25,11.06,43.25l62.06-1S1164.75,612,1158.44,589.29,1148.26,556.44,1119,564Z" fill="#56679c" fill-rule="evenodd"/>
  <path d="M1120.28,768.15s-6.52-10.84-2.1-14.6,29-12.17,53.43-3.87,25.55,23.56,22.79,31.75-19.25,21.24-22.68,21.24-9-4.1-9-4.1S1157.45,766.16,1120.28,768.15Z" fill="#6a7fc0" fill-rule="evenodd"/>
  <path d="M1162.76,798.57l-116.7,49.23-53.76-.56,1.75-9.2s-13.58-4.07-7.61-12.81,42.59-41.59,48.12-38.49,8.4,21.46,14.38,21,71.34-39.6,71.34-39.6C1157.45,766.16,1162.76,798.57,1162.76,798.57Z" fill="#eaa58b" fill-rule="evenodd"/>
  <path d="M1162.76,798.57l-11.5,4.85c-1.64-5.82-5.37-16.78-11.51-23a54.34,54.34,0,0,0-19.47-12.28C1157.45,766.16,1162.76,798.57,1162.76,798.57Z" fill="#30242a" fill-rule="evenodd"/>
  <path d="M1027.83,811.8a2.08,2.08,0,1,1,2.4,3.41l-35,24.54a2.09,2.09,0,0,1-2.4-3.42Z" fill="#b96253" fill-rule="evenodd"/>
  <path d="M912.49,868.6a2.08,2.08,0,1,1,2.57,3.28c-.07,0-21.63,16.37-17.8,52.12,4,36.91,40.16,301.39,40.26,302.15a2.08,2.08,0,1,1-4.13.55c-.11-.76-36.31-265.33-40.27-302.26C889,886.36,912.43,868.65,912.49,868.6Z" fill="#fff" fill-rule="evenodd"/>
  <path d="M1044.59,614.77c8.68,1.22,26.83,3.34,29.67.07,3.21-3.68-2.86-50.7-4.69-64.33a67.4,67.4,0,0,1-8.58-3.06l-16.15,66.37Z" fill="#56679c" fill-rule="evenodd"/>
  <path d="M963.48,394.85s23.9-39.82,39.82-37.39,78.32,37,81.42,49.34,10.12,134.06,11,139.48,1.88,9.41,1.88,9.41-17.81-3.1-24.06-4.26a63.29,63.29,0,0,1-12.5-4l-51.32,76.48-13.28,22.42s.11,15.3,1.11,18.29-21.79,9.62-31.2,2.88-11.5-20.8-11.5-20.8-2.65,7.52-10.06,10.84-10.29,2.88-10.29,2.88,5.42-17.92,3.87-50.66,5.53-133.18,8.62-171.9S957.79,395.84,963.48,394.85Z" fill="#ffb7d5" fill-rule="evenodd"/>
  <path d="M964.23,470.53a2.09,2.09,0,0,1,4.13.6c0,.21-10.61,72.73-13,112.87s1.53,62.3,1.54,62.36a2.09,2.09,0,0,1-4.12.72c0-.07-4-22.8-1.58-63.32S964.2,470.74,964.23,470.53Z" fill="#c46d7e" fill-rule="evenodd"/>
  <path d="M999.59,357.54a2.09,2.09,0,1,1,4.17-.36c0,.12,3.5,42.22,16.48,67.12C1033.13,449,1047.83,457,1047.88,457a2.09,2.09,0,0,1-2,3.66s-15.85-8.62-29.33-34.48C1003.15,400.53,999.6,357.66,999.59,357.54Z" fill="#c46d7e" fill-rule="evenodd"/>
  <path d="M1041.35,375.65a2.09,2.09,0,0,1,4.12-.69c0,.1,5.57,34.17,19.37,62,14.19,28.59,8.73,113.93,8.72,114.17a2.09,2.09,0,0,1-4.17-.24c0-.24,5.4-84.5-8.29-112.09C1047,410.42,1041.37,375.75,1041.35,375.65Z" fill="#c46d7e" fill-rule="evenodd"/>
  <path d="M983.91,526.07a2.09,2.09,0,0,1,4.14.58c0,.17-8.6,62-6.62,98,1.93,35.26,11.78,41.77,11.8,41.79a2.08,2.08,0,1,1-2.4,3.41s-11.52-7.66-13.57-45C975.26,588.44,983.89,526.25,983.91,526.07Z" fill="#c46d7e" fill-rule="evenodd"/>
  <path d="M978.25,397.13s-18.81,30.31-18.15,54.2,9.74,82.19,20.58,84.84,28-10.29,28-10.29-8.73,53.87-10.5,77.1-1.77,43.37-1.77,43.37,14.38,16.14,25.22,4.86,23.23-37.39,23.23-37.39L1061,547.45l-6.64-65.26s19-20.8,17.15-33.07-13.17-4.65-18.59,2.21-6.74,8.4-6.74,8.4S1004.69,437.61,978.25,397.13Z" fill="#eaa58b" fill-rule="evenodd"/>
  <path d="M962.21,475.35q.38,2.92.81,5.93a17.47,17.47,0,0,0,3.86-.26c4.38-.76,7.68-2.87,7.36-4.7s-4.13-2.71-8.52-1.95a18.42,18.42,0,0,0-3.51,1Zm56-6.28c4.45,0,8.06,1.51,8.06,3.37s-3.61,3.38-8.06,3.38-8.05-1.51-8.05-3.38S1013.77,469.07,1018.21,469.07Z" fill="#c57966" fill-rule="evenodd"/>
  <path d="M1008.66,525.88s-1.33,8.23-3.06,19.64c10.39-10.75,32.74-34.31,31.89-37.28C1036.38,504.36,1008.66,525.88,1008.66,525.88Z" fill="#30242a" fill-rule="evenodd"/>
  <path d="M971.83,448.12c3.06,0,5.53,4.13,5.53,9.23s-2.47,9.24-5.53,9.24-5.53-4.13-5.53-9.24,2.48-9.23,5.53-9.23Zm39-3.76c3,0,5.53,4.13,5.53,9.23s-2.48,9.24-5.53,9.24-5.53-4.14-5.53-9.24S1007.82,444.36,1010.88,444.36Z" fill="#30242a" fill-rule="evenodd"/>
  <path d="M990.3,454.87a2.08,2.08,0,1,1,3.77,1.76c0,.08-12.43,26.63-11.09,29.7.71,1.62,5.71-1.72,5.72-1.73a2.09,2.09,0,1,1,2.32,3.47s-9.14,6.16-11.86-.07C977.07,483.22,990.26,455,990.3,454.87Z" fill="#b96253" fill-rule="evenodd"/>
  <path d="M985,497.17a2.08,2.08,0,1,1,3.72-1.86s2.8,5.5,7.74,2.51a44.63,44.63,0,0,0,9.83-7.7,2.09,2.09,0,0,1,3.17,2.71,49.34,49.34,0,0,1-10.85,8.57C989.86,506.7,985,497.19,985,497.17Z" fill="#b96253" fill-rule="evenodd"/>
  <path d="M1056.92,472.11a2.09,2.09,0,1,1-4.14-.54s1.53-11.69,6.65-17,7.45-6,7.46-6a2.09,2.09,0,1,1,1.14,4s-1.34.45-5.59,4.86S1056.92,472.08,1056.92,472.11Z" fill="#b96253" fill-rule="evenodd"/>
  <path d="M977.2,436.15a4.17,4.17,0,1,1,.55,8.33s-8.28.44-11,1.22a12.2,12.2,0,0,0-3.94,1.92,4.17,4.17,0,1,1-4.83-6.79,19.47,19.47,0,0,1,6.49-3.14C968.34,436.59,977.17,436.15,977.2,436.15Z" fill="#30242a" fill-rule="evenodd"/>
  <path d="M1005.53,442.21a4.17,4.17,0,1,1-2.35-8,53,53,0,0,1,12.09-1.55,29.56,29.56,0,0,1,12.2,2.5,4.16,4.16,0,1,1-3.53,7.54,20.69,20.69,0,0,0-8.6-1.71A43.63,43.63,0,0,0,1005.53,442.21Z" fill="#30242a" fill-rule="evenodd"/>
  <rect fill="#30242a" height="13.27" width="340.25" x="802.8" y="844.48"/>
  <rect fill="#d48b18" height="13.27" width="147.34" x="995.71" y="844.48"/>
  <polygon fill="#ffbe21" fill-rule="evenodd" points="766.74 844.49 995.71 844.49 958.99 702.46 730.02 702.46 766.74 844.49"/>
  <path d="M841.08,761c4.85-6.21,15.18-6.25,23.08-.09s10.38,16.2,5.53,22.41-15.18,6.26-23.08.09S836.23,767.23,841.08,761Z" fill="#fff" fill-rule="evenodd"/>
</svg>